<?xml version="1.0" encoding="UTF-8" standalone="no"?>
<svg width="78px" height="47px" viewBox="0 0 78 47" version="1.1" xmlns="http://www.w3.org/2000/svg" xmlns:xlink="http://www.w3.org/1999/xlink" xmlns:sketch="http://www.bohemiancoding.com/sketch/ns">
    <!-- Generator: Sketch 3.3.3 (12072) - http://www.bohemiancoding.com/sketch -->
    <title>ic_mastercard_48px</title>
    <desc>Created with Sketch.</desc>
    <defs></defs>
    <g id="Comps" stroke="none" stroke-width="1" fill="none" fill-rule="evenodd" sketch:type="MSPage">
        <g id="Stickersheet" sketch:type="MSArtboardGroup" transform="translate(-48.000000, 0.000000)">
            <g id="ic_mastercard_48px" sketch:type="MSLayerGroup" transform="translate(48.000000, 0.000000)">
                <g id="BG" sketch:type="MSShapeGroup">
                    <path d="M77.6597631,23.4 C77.6634235,36.1944402 67.2942168,46.5683531 54.4997765,46.571752 C41.7050749,46.5748894 31.3314235,36.2062056 31.3280246,23.4117654 L31.3280246,23.4 C31.3246257,10.6058212 41.6938324,0.231385475 54.4877497,0.227986592 C67.2824514,0.224587709 77.6563642,10.5937944 77.6597631,23.3882346 L77.6597631,23.4 L77.6597631,23.4 Z" id="path2268" fill="#FF9900"></path>
                    <path d="M23.2695352,0.234 C10.5509162,0.314788827 0.252824581,10.662295 0.252824581,23.4 C0.252824581,36.187381 10.6311821,46.5657385 23.4188246,46.5657385 C29.420467,46.5657385 34.8910994,44.278552 39.0076693,40.5298458 C39.0074078,40.5298458 39.0068849,40.5293229 39.0058391,40.5288 L39.0108067,40.5288 C39.8537296,39.7606525 40.6399173,38.931848 41.3625721,38.0481385 L36.6164246,38.0481385 C35.9826637,37.2826056 35.4066838,36.484914 34.8892693,35.6618615 L43.0748246,35.6618615 C43.5726302,34.8652156 44.0233743,34.0379799 44.4233966,33.1812 L33.5378212,33.1812 C33.1668201,32.3858615 32.8447106,31.5724827 32.5696626,30.7473385 L45.3926011,30.7473385 C46.1654547,28.4381899 46.5848246,25.9677251 46.5848246,23.3997385 C46.5848246,21.6971598 46.4002391,20.0371978 46.0509385,18.4389385 L31.8896246,18.4389385 C32.0650592,17.6164089 32.2865095,16.8038145 32.5505765,16.0053385 L45.3782212,16.0053385 C45.0914078,15.1556179 44.7583173,14.3275978 44.3794726,13.5249385 L33.536514,13.5249385 C33.9276469,12.6893363 34.3708089,11.8764804 34.8657385,11.0916 L43.0452804,11.0916 C42.5009363,10.224362 41.8985497,9.39581899 41.2472715,8.61093855 L36.6867553,8.61093855 C37.3918927,7.78108827 38.1681453,6.9996067 39.0108067,6.27093855 C34.8939754,2.5217095 29.4217743,0.234 23.4188246,0.234 C23.3688872,0.234 23.3194726,0.233738547 23.2695352,0.234 L23.2695352,0.234 Z" id="path1350" fill="#CC0000"></path>
                </g>
                <g id="Text" transform="translate(2.353073, 17.255866)" fill="#FFFFFF" sketch:type="MSShapeGroup">
                    <path d="M29.396152,12.0422413 L29.7049274,9.94565363 C29.5362905,9.94565363 29.2881721,10.0178145 29.0693363,10.0178145 C28.2107263,10.0178145 28.1160804,9.56131844 28.170724,9.22378324 L28.8643575,4.94589721 L30.169267,4.94589721 L30.4843173,2.62681341 L29.2539218,2.62681341 L29.5043933,1.18464134 L27.0378503,1.18464134 C26.9834682,1.23902346 25.5818212,9.29568268 25.5818212,10.2766525 C25.5818212,11.7290212 26.3972916,12.3758547 27.5471598,12.3653966 C28.4476022,12.3578145 29.1488179,12.1086503 29.396152,12.0422413 L29.396152,12.0422413 Z" id="path4157"></path>
                    <path d="M30.1776335,8.04489385 C30.1776335,11.5305788 32.4784156,12.3588603 34.4385251,12.3588603 C36.2477765,12.3588603 37.0438994,11.9543933 37.0438994,11.9543933 L37.4784335,9.57543687 C37.4784335,9.57543687 36.1021475,10.1817453 34.8592022,10.1817453 C32.2106883,10.1817453 32.674505,8.20699441 32.674505,8.20699441 L37.6870726,8.20699441 C37.6870726,8.20699441 38.0107508,6.6087352 38.0107508,5.95745698 C38.0107508,4.33226816 37.2018168,2.35202682 34.4936916,2.35202682 C32.0135531,2.35254972 30.1776335,5.02485587 30.1776335,8.04489385 L30.1776335,8.04489385 Z M34.5031039,4.56103911 C35.8950771,4.56103911 35.6383307,6.1253095 35.6383307,6.25185251 L32.8998771,6.25185251 C32.8998771,6.09027486 33.1587151,4.56103911 34.5031039,4.56103911 L34.5031039,4.56103911 Z" id="path4155"></path>
                    <path d="M15.8301654,2.39046034 C14.1388291,2.39046034 12.842286,2.93402011 12.842286,2.93402011 L12.4843575,5.05884469 C12.4843575,5.05884469 13.5544827,4.62404916 15.1720894,4.62404916 C16.0905721,4.62404916 16.762505,4.72732291 16.762505,5.47376983 C16.762505,5.92712849 16.6801475,6.0944581 16.6801475,6.0944581 C16.6801475,6.0944581 15.9556626,6.03380112 15.620219,6.03380112 C13.4870279,6.03380112 11.2461184,6.94417877 11.2461184,9.68890726 C11.2461184,11.8516425 12.7162659,12.3478793 13.6274279,12.3478793 C15.3676559,12.3478793 16.1177631,11.2186659 16.1577654,11.215267 L16.0764536,12.1578034 L18.2483397,12.1578034 L19.2172827,5.36500559 C19.2172827,2.48327598 16.7034168,2.39046034 15.8301654,2.39046034 L15.8301654,2.39046034 Z M16.3585609,7.92122682 C16.4056223,8.33615196 16.0984156,10.2810972 14.6133654,10.2810972 C13.8473095,10.2810972 13.6480827,9.69596648 13.6480827,9.34980335 C13.6480827,8.67473296 14.0149006,7.86423017 15.8223218,7.86423017 C16.2427374,7.86475307 16.2877073,7.90972291 16.3585609,7.92122682 L16.3585609,7.92122682 Z" id="path4149"></path>
                    <path d="M21.5256469,12.2982034 C22.0812335,12.2982034 25.2573587,12.4393877 25.2573587,9.16208045 C25.2573587,6.09811844 22.3173251,6.70338101 22.3173251,5.47246257 C22.3173251,4.85961788 22.7965676,4.66666592 23.6724335,4.66666592 C24.0201654,4.66666592 25.3580179,4.77726034 25.3580179,4.77726034 L25.6691464,2.59936089 C25.6691464,2.59962235 24.8032156,2.40562458 23.3934637,2.40562458 C21.5687866,2.40562458 19.716657,3.13403128 19.716657,5.62619665 C19.716657,8.45014525 22.8049341,8.16673073 22.8049341,9.35633966 C22.8049341,10.1503709 21.9421408,10.2149497 21.277267,10.2149497 C20.1266145,10.2149497 19.0904782,9.82015642 19.0868179,9.83898101 L18.7579106,11.9949184 C18.8175218,12.0132201 19.4565117,12.2982034 21.5256469,12.2982034 L21.5256469,12.2982034 Z" id="path4145"></path>
                    <path d="M40.4775553,12.1881318 C41.1955039,8.10528939 41.3285832,4.79007151 43.0418816,5.39690279 C43.3417676,3.8166838 43.6311955,3.20540782 43.9585341,2.53661229 C43.9585341,2.53661229 43.8050615,2.50445363 43.482952,2.50445363 C42.3783151,2.50445363 41.5599687,4.01355754 41.5599687,4.01355754 L41.7798503,2.62759777 L39.4832514,2.62759777 L37.9446034,12.1881318 L40.4775553,12.1881318 L40.4775553,12.1881318 Z" id="path4131"></path>
                    <path d="M2.4749095,12.1719218 L3.97643128,3.31652514 L4.19683575,12.1719218 L5.89627709,12.1719218 L9.06638883,3.31652514 L7.66212737,12.1719218 L10.1872358,12.1719218 L12.1319196,0.426690503 L8.22712626,0.426690503 L5.79535642,7.63310615 L5.66881341,0.426690503 L2.06939665,0.426690503 L0.0967374302,12.1719218 L2.4749095,12.1719218 L2.4749095,12.1719218 Z" id="path4133"></path>
                    <path d="M50.1222771,12.0411955 L50.5636089,9.35215642 C50.5636089,9.35215642 49.3533453,9.95898771 48.5227106,9.95898771 C46.7730704,9.95898771 46.0713318,8.62296536 46.0713318,7.18759106 C46.0713318,4.27579441 47.5767754,2.67387486 49.252686,2.67387486 C50.5094883,2.67387486 51.5181721,3.3795352 51.5181721,3.3795352 L51.9208089,0.766840223 C51.9208089,0.766840223 50.4250391,0.161577654 49.142876,0.161577654 C46.2953966,0.161577654 43.5253073,2.63178101 43.5253073,7.27099441 C43.5253073,10.3472447 45.0210771,12.3789922 47.9645095,12.3789922 C48.7967128,12.3792536 50.1222771,12.0411955 50.1222771,12.0411955 L50.1222771,12.0411955 Z" id="path4151"></path>
                    <path d="M55.8136277,2.39046034 C54.1222914,2.39046034 52.8257484,2.93402011 52.8257484,2.93402011 L52.4680813,5.05884469 C52.4680813,5.05884469 53.5382065,4.62404916 55.1558132,4.62404916 C56.0742959,4.62404916 56.7457059,4.72732291 56.7457059,5.47376983 C56.7457059,5.92712849 56.6638713,6.0944581 56.6638713,6.0944581 C56.6638713,6.0944581 55.9393864,6.03380112 55.6036813,6.03380112 C53.4707517,6.03380112 51.2298422,6.94417877 51.2298422,9.68890726 C51.2298422,11.8516425 52.6997283,12.3478793 53.6108903,12.3478793 C55.3511182,12.3478793 56.1012255,11.2186659 56.1409663,11.215267 L56.0601774,12.1578034 L58.2320635,12.1578034 L59.200745,5.36500559 C59.2010065,2.48327598 56.6868791,2.39046034 55.8136277,2.39046034 L55.8136277,2.39046034 Z M56.3428076,7.92122682 C56.3898691,8.33615196 56.0824009,10.2810972 54.5968277,10.2810972 C53.8307718,10.2810972 53.6320679,9.69596648 53.6320679,9.34980335 C53.6320679,8.67473296 53.9988858,7.86423017 55.8060456,7.86423017 C56.2264612,7.86475307 56.2711696,7.90972291 56.3428076,7.92122682 L56.3428076,7.92122682 Z" id="path4149_1_"></path>
                    <path d="M61.1858232,12.1881318 C61.9040333,8.10528939 62.0371126,4.79007151 63.749888,5.39690279 C64.050297,3.8166838 64.3399864,3.20540782 64.6670635,2.53661229 C64.6670635,2.53661229 64.5135908,2.50445363 64.1914813,2.50445363 C63.0868445,2.50445363 62.2684981,4.01355754 62.2684981,4.01355754 L62.4883797,2.62759777 L60.1917808,2.62759777 L58.6531327,12.1881318 L61.1858232,12.1881318 L61.1858232,12.1881318 Z" id="path4131_1_"></path>
                    <path d="M70.5534838,0.436102793 L70.0214279,3.73746369 C70.0214279,3.73746369 69.0930101,2.45503911 67.6395955,2.45503911 C65.3796,2.45503911 63.4958346,5.17989721 63.4958346,8.31079106 C63.4958346,10.331819 64.5005966,12.3120603 66.5545676,12.3120603 C68.0320358,12.3120603 68.8511665,11.2819374 68.8511665,11.2819374 L68.7426637,12.1617251 L71.141752,12.1617251 L73.0260402,0.432181006 L70.5534838,0.436102793 L70.5534838,0.436102793 Z M69.4080603,6.87306369 C69.4080603,8.17588156 68.763057,9.9161095 67.4257274,9.9161095 C66.5380961,9.9161095 66.1221251,9.17096983 66.1221251,8.00149274 C66.1221251,6.08922905 66.9809966,4.82745922 68.0647173,4.82745922 C68.9526101,4.82719777 69.4080603,5.43716648 69.4080603,6.87306369 L69.4080603,6.87306369 Z" id="path4139"></path>
                </g>
            </g>
        </g>
    </g>
</svg>