<?xml version="1.0" encoding="UTF-8" standalone="no"?>
<svg width="219px" height="131px" viewBox="0 0 219 131" version="1.1" xmlns="http://www.w3.org/2000/svg" xmlns:xlink="http://www.w3.org/1999/xlink" xmlns:sketch="http://www.bohemiancoding.com/sketch/ns">
    <!-- Generator: Sketch 3.3.3 (12072) - http://www.bohemiancoding.com/sketch -->
    <title>ic_mastercard_bg_132px</title>
    <desc>Created with Sketch.</desc>
    <defs></defs>
    <g id="Comps" stroke="none" stroke-width="1" fill="none" fill-rule="evenodd" sketch:type="MSPage">
        <g id="Stickersheet" sketch:type="MSArtboardGroup" transform="translate(0.000000, -48.000000)" fill-opacity="0.100000001" fill="#000000">
            <g id="ic_mastercard_bg_132px" sketch:type="MSLayerGroup" transform="translate(0.000000, 48.000000)">
                <path d="M218.108271,65.7191489 C218.118551,101.65247 188.996524,130.787715 153.063202,130.797261 C117.129146,130.806072 87.9946361,101.685514 87.9850903,65.7521921 L87.9850903,65.7191489 C87.9755445,29.7865617 117.097572,0.649848568 153.029425,0.64030277 C188.963481,0.630756971 218.098725,29.7527843 218.108271,65.6861058 L218.108271,65.7191489 L218.108271,65.7191489 Z" id="path2268" sketch:type="MSShapeGroup"></path>
                <path d="M65.3527371,0.657191489 C29.6323604,0.884087769 0.710060525,29.9451689 0.710060525,65.7191489 C0.710060525,101.632645 29.8577881,130.780372 65.772018,130.780372 C82.6276947,130.780372 97.992024,124.356784 109.553454,113.828503 C109.55272,113.828503 109.551251,113.827035 109.548314,113.825566 L109.562266,113.825566 C111.929624,111.668216 114.13764,109.340509 116.167224,106.858602 L102.837618,106.858602 C101.057694,104.708594 99.4400481,102.468269 97.9868839,100.156717 L120.976103,100.156717 C122.374195,97.919329 123.640115,95.5960286 124.763582,93.1897532 L94.1913277,93.1897532 C93.1493671,90.9560364 92.2447192,88.6716535 91.4722438,86.3542274 L127.485603,86.3542274 C129.656171,79.868959 130.833975,72.9306323 130.833975,65.7184146 C130.833975,60.9367041 130.315565,56.2746831 129.334551,51.7859551 L89.5623499,51.7859551 C90.0550599,49.4758719 90.6770054,47.1936919 91.4186405,44.9511636 L127.445217,44.9511636 C126.639699,42.564714 125.70421,40.2392107 124.640221,37.9849338 L94.1876562,37.9849338 C95.2861573,35.638136 96.5307826,33.3552217 97.9207976,31.1508766 L120.893128,31.1508766 C119.364332,28.7152295 117.672523,26.3882576 115.843401,24.1839125 L103.035143,24.1839125 C105.015529,21.8532692 107.195642,19.6584699 109.562266,17.6119976 C98.0001012,7.08224795 82.6313661,0.657191489 65.772018,0.657191489 C65.6317682,0.657191489 65.4929869,0.656457197 65.3527371,0.657191489 L65.3527371,0.657191489 Z" id="path1350" sketch:type="MSShapeGroup"></path>
            </g>
        </g>
    </g>
</svg>