<?xml version="1.0" encoding="UTF-8" standalone="no"?>
<svg width="216px" height="70px" viewBox="0 0 216 70" version="1.1" xmlns="http://www.w3.org/2000/svg" xmlns:xlink="http://www.w3.org/1999/xlink" xmlns:sketch="http://www.bohemiancoding.com/sketch/ns">
    <!-- Generator: Sketch 3.3.3 (12072) - http://www.bohemiancoding.com/sketch -->
    <title>ic_visa_bg_66px</title>
    <desc>Created with Sketch.</desc>
    <defs></defs>
    <g id="Comps" stroke="none" stroke-width="1" fill="none" fill-rule="evenodd" sketch:type="MSPage">
        <g id="Stickersheet" sketch:type="MSArtboardGroup" transform="translate(-2.000000, -179.000000)" fill-opacity="0.0500000045" fill="#000000">
            <g id="ic_visa_bg_66px" sketch:type="MSLayerGroup" transform="translate(3.000000, 179.000000)">
                <path d="M85.8405966,0.713328998 L103.099836,0.713328998 L92.3016118,64.0335416 L75.0498118,64.0335416 L85.8405966,0.713328998 Z" id="polygon3052" sketch:type="MSShapeGroup"></path>
                <path d="M154.984569,2.76231151 C151.565005,1.47948876 146.207293,0.10286395 139.515978,0.10286395 C122.462132,0.10286395 110.449336,8.69124299 110.346799,20.9993558 C110.250735,30.0978236 118.922888,35.1731574 125.469618,38.2023111 C132.187778,41.3058652 134.446142,43.2854097 134.413796,46.0567744 C134.371423,50.3011515 129.048969,52.2402672 124.088463,52.2402672 C117.180436,52.2402672 113.510512,51.2805725 107.842286,48.9164374 L105.618208,47.910171 L103.195854,62.0849416 C107.226749,63.8523018 114.681419,65.3838624 122.421378,65.4631051 C140.56365,65.4631051 152.341297,56.9733825 152.475207,43.8297833 C152.540219,36.6264407 147.941657,31.1448479 137.984739,26.6258565 C131.951978,23.6966476 128.257474,21.7420085 128.296614,18.7759255 C128.296614,16.1439719 131.423779,13.329589 138.180431,13.329589 C143.8244,13.2419327 147.912545,14.4726792 151.098259,15.7555019 L152.644697,16.4861871 L154.984569,2.76231151" id="path3054" sketch:type="MSShapeGroup"></path>
                <path d="M199.241956,1.26374408 L185.905581,1.26374408 C181.774411,1.26374408 178.682504,2.39130837 176.868247,6.51471387 L151.235724,64.5435259 L169.359239,64.5435259 C169.359239,64.5435259 172.322407,56.7411385 172.992607,55.028124 C174.973119,55.028124 192.579431,55.0552829 195.096234,55.0552829 C195.61279,57.2719207 197.196105,64.5435139 197.196105,64.5435139 L213.21101,64.5435139 L199.241956,1.26374408 L199.241956,1.26374408 Z M177.959581,42.0766614 C179.38699,38.4284083 184.835913,24.3759034 184.835913,24.3759034 C184.734023,24.5444231 186.252647,20.7098633 187.124361,18.3324685 L188.29074,23.7917437 C188.29074,23.7917437 191.595478,38.9064758 192.286381,42.0760105 L177.959581,42.0768141 L177.959581,42.0766614 Z" id="path3056" sketch:type="MSShapeGroup"></path>
                <path d="M18.5712122,10.9261288 L33.5100456,64.4688068 L51.7707019,64.4481057 L78.9422221,1.24951219 L60.6602178,1.24951219 L43.7629246,44.4291476 L41.9625736,35.6541348 C41.9622483,35.6530887 41.961923,35.6520426 41.9615975,35.6509965 L41.9615975,35.6509963 L35.9107292,6.55611617 C34.8659693,2.54656705 31.8358421,1.35010672 28.0873212,1.21037413 L0.256923051,1.21037413 L0.0366501444,2.52780665 C6.30618357,4.04547975 11.9615457,6.18570442 16.9771275,8.8301897 C17.8916662,9.40231201 18.278763,10.0317304 18.5712122,10.9261288 Z" id="path3058" sketch:type="MSShapeGroup"></path>
            </g>
        </g>
    </g>
</svg>